Coordinates
version=1
nRows=5
nColumns=40
inDegrees=yes
endheader
time	pelvis_tilt	pelvis_list	pelvis_rotation	pelvis_tx	pelvis_ty	pelvis_tz	hip_flexion_r	hip_adduction_r	hip_rotation_r	knee_angle_r	knee_angle_r_beta	ankle_angle_r	subtalar_angle_r	mtp_angle_r	hip_flexion_l	hip_adduction_l	hip_rotation_l	knee_angle_l	knee_angle_l_beta	ankle_angle_l	subtalar_angle_l	mtp_angle_l	lumbar_extension	lumbar_bending	lumbar_rotation	arm_flex_r	arm_add_r	arm_rot_r	elbow_flex_r	pro_sup_r	wrist_flex_r	wrist_dev_r	arm_flex_l	arm_add_l	arm_rot_l	elbow_flex_l	pro_sup_l	wrist_flex_l	wrist_dev_l
1760624930.31800008	      0.05382964	     -0.57906076	      2.33665625	     -0.03165077	      0.93465461	     -0.01500269	     80.00000000	     -7.00000000	      0.00000000	     80.00000000	      1.39626340	      0.00000000	      0.00000000	      0.00000000	     80.00000000	     -7.00000000	      0.00000000	     80.00000000	      1.39626340	      0.00000000	      0.00000000	      0.00000000	     -4.74798634	     -1.52906276	      1.02964813	     -0.44834152	    -21.17988157	      0.77756980	     24.22208045	      0.04514173	    -17.25533297	     15.99125611	      1.41029903	     -2.62080197	      2.75721439	      2.29465160	      0.00000000	      0.50506010	      0.18966505
1760624930.35100007	      0.06616780	     -0.58056766	      2.33387529	     -0.03267593	      0.93449518	     -0.01523557	     80.00000000	     -7.00000000	      0.00000000	     80.00000000	      1.39626340	      0.00000000	      0.00000000	      0.00000000	     80.00000000	     -7.00000000	      0.00000000	     80.00000000	      1.39626340	      0.00000000	      0.00000000	      0.00000000	     -4.73978792	     -1.53134342	      1.02182116	     -0.45461738	    -21.18036291	      0.77434684	     24.21746282	      0.04198828	    -17.25430811	     15.98909218	      1.40976455	     -2.62525319	      2.75872249	      2.29658413	      0.00000000	      0.50693743	      0.18754025
1760624930.38499999	      0.06603378	     -0.57278508	      2.34097445	     -0.03213408	      0.93442479	     -0.01509056	     80.00000000	     -7.00000000	      0.00000000	     80.00000000	      1.39626340	      0.00000000	      0.00000000	      0.00000000	     80.00000000	     -7.00000000	      0.00000000	     80.00000000	      1.39626340	      0.00000000	      0.00000000	      0.00000000	     -4.65912159	     -1.61264730	      1.01326697	     -0.50113290	    -21.12866911	      0.81326473	     24.16575264	      0.05008741	    -17.19123200	     16.02013698	      1.34661009	     -2.67864788	      2.77164928	      2.29325615	      0.00000000	      0.52881690	      0.19389972
1760624930.41799998	      0.07570849	     -0.55915400	      2.34252819	     -0.03169476	      0.93395512	     -0.01556526	     80.00000000	     -7.00000000	      0.00000000	     80.00000000	      1.39626340	      0.00000000	      0.00000000	      0.00000000	     80.00000000	     -7.00000000	      0.00000000	     80.00000000	      1.39626340	      0.00000000	      0.00000000	      0.00000000	     -4.64685190	     -1.62292952	      1.00753526	     -0.50275993	    -21.12539617	      0.79496942	     24.14693791	      0.02747788	    -17.17643709	     16.01768905	      1.32591937	     -2.66300430	      2.77647256	      2.31808770	      0.00000000	      0.51918809	      0.20325753
1760624930.45199990	      0.07915272	     -0.56692072	      2.33147095	     -0.03166833	      0.93356966	     -0.01551616	     80.00000000	     -7.00000000	      0.00000000	     80.00000000	      1.39626340	      0.00000000	      0.00000000	      0.00000000	     80.00000000	     -7.00000000	      0.00000000	     80.00000000	      1.39626340	      0.00000000	      0.00000000	      0.00000000	     -4.61898912	     -1.64110497	      1.07447931	     -0.44212024	    -21.11193782	      0.76704497	     24.06563159	      0.00000000	    -17.21045461	     16.05189153	      1.21400518	     -2.67669902	      2.83778042	      2.42532607	      0.00000000	      0.53300024	      0.20917823
